<svg xmlns="http://www.w3.org/2000/svg" viewBox="0 0 100 100" width="32" height="32"><circle cx="50" cy="50" r="48" fill="#0B1F3A" stroke="#C9A55C" stroke-width="2" /><g fill="#C9A55C"><path d="M30 30 L30 70 L40 70 L40 55 L45 55 L50 70 L60 70 L53 52 C56 50 58 46 58 42 C58 35 52 30 45 30 L30 30 Z M40 40 L45 40 C47 40 48 41 48 42 C48 43 47 45 45 45 L40 45 L40 40 Z" /><path d="M65 30 L65 70 L75 70 L75 55 L80 55 L85 70 L95 70 L88 52 C91 50 93 46 93 42 C93 35 87 30 80 30 L65 30 Z M75 40 L80 40 C82 40 83 41 83 42 C83 43 82 45 80 45 L75 45 L75 40 Z" /></g></svg>
